<mxfile host="app.diagrams.net" modified="2022-02-27T19:45:36.932Z" agent="5.0 (Windows NT 10.0; Win64; x64) AppleWebKit/537.36 (KHTML, like Gecko) Chrome/98.0.4758.102 Safari/537.36" etag="qizupMuYWgTBrfYPvu81" version="16.6.4" type="github">
  <diagram id="C5RBs43oDa-KdzZeNtuy" name="Page-1">
    <mxGraphModel dx="2702" dy="2035" grid="1" gridSize="10" guides="1" tooltips="1" connect="1" arrows="1" fold="1" page="1" pageScale="1" pageWidth="827" pageHeight="1169" math="0" shadow="0">
      <root>
        <mxCell id="WIyWlLk6GJQsqaUBKTNV-0" />
        <mxCell id="WIyWlLk6GJQsqaUBKTNV-1" parent="WIyWlLk6GJQsqaUBKTNV-0" />
        <mxCell id="tTboqh6hp8117DdVjzpD-1" value="Inicio" style="rounded=1;whiteSpace=wrap;html=1;fontSize=12;glass=0;strokeWidth=1;shadow=0;" vertex="1" parent="WIyWlLk6GJQsqaUBKTNV-1">
          <mxGeometry x="354" y="-70" width="120" height="40" as="geometry" />
        </mxCell>
        <mxCell id="tTboqh6hp8117DdVjzpD-2" value="Fin" style="rounded=1;whiteSpace=wrap;html=1;fontSize=12;glass=0;strokeWidth=1;shadow=0;" vertex="1" parent="WIyWlLk6GJQsqaUBKTNV-1">
          <mxGeometry x="1356.5" y="810" width="120" height="40" as="geometry" />
        </mxCell>
        <mxCell id="tTboqh6hp8117DdVjzpD-3" value="Asignar el valor 0 a la variable opcion" style="rounded=0;whiteSpace=wrap;html=1;" vertex="1" parent="WIyWlLk6GJQsqaUBKTNV-1">
          <mxGeometry x="354" y="20" width="120" height="60" as="geometry" />
        </mxCell>
        <mxCell id="tTboqh6hp8117DdVjzpD-4" value="" style="rounded=0;html=1;jettySize=auto;orthogonalLoop=1;fontSize=11;endArrow=block;endFill=0;endSize=8;strokeWidth=1;shadow=0;labelBackgroundColor=none;edgeStyle=orthogonalEdgeStyle;exitX=0.5;exitY=1;exitDx=0;exitDy=0;entryX=0.5;entryY=0;entryDx=0;entryDy=0;" edge="1" parent="WIyWlLk6GJQsqaUBKTNV-1" source="tTboqh6hp8117DdVjzpD-3" target="tTboqh6hp8117DdVjzpD-5">
          <mxGeometry relative="1" as="geometry">
            <mxPoint x="413.5" y="160" as="sourcePoint" />
            <mxPoint x="420" y="150" as="targetPoint" />
          </mxGeometry>
        </mxCell>
        <mxCell id="tTboqh6hp8117DdVjzpD-5" value="Escribir &quot;Elija uno de los siguientes ejercicios&quot;" style="shape=parallelogram;perimeter=parallelogramPerimeter;whiteSpace=wrap;html=1;fixedSize=1;" vertex="1" parent="WIyWlLk6GJQsqaUBKTNV-1">
          <mxGeometry x="294" y="170" width="240" height="60" as="geometry" />
        </mxCell>
        <mxCell id="tTboqh6hp8117DdVjzpD-6" value="" style="rounded=0;html=1;jettySize=auto;orthogonalLoop=1;fontSize=11;endArrow=block;endFill=0;endSize=8;strokeWidth=1;shadow=0;labelBackgroundColor=none;edgeStyle=orthogonalEdgeStyle;" edge="1" parent="WIyWlLk6GJQsqaUBKTNV-1" source="tTboqh6hp8117DdVjzpD-5">
          <mxGeometry relative="1" as="geometry">
            <mxPoint x="413.5" y="270" as="sourcePoint" />
            <mxPoint x="413.5" y="320" as="targetPoint" />
          </mxGeometry>
        </mxCell>
        <mxCell id="tTboqh6hp8117DdVjzpD-7" value="Mostrar el menu()" style="shape=parallelogram;perimeter=parallelogramPerimeter;whiteSpace=wrap;html=1;fixedSize=1;" vertex="1" parent="WIyWlLk6GJQsqaUBKTNV-1">
          <mxGeometry x="309" y="270" width="210" height="60" as="geometry" />
        </mxCell>
        <mxCell id="tTboqh6hp8117DdVjzpD-8" value="" style="rounded=0;html=1;jettySize=auto;orthogonalLoop=1;fontSize=11;endArrow=block;endFill=0;endSize=8;strokeWidth=1;shadow=0;labelBackgroundColor=none;edgeStyle=orthogonalEdgeStyle;entryX=0.5;entryY=0;entryDx=0;entryDy=0;" edge="1" parent="WIyWlLk6GJQsqaUBKTNV-1" source="tTboqh6hp8117DdVjzpD-7" target="tTboqh6hp8117DdVjzpD-9">
          <mxGeometry relative="1" as="geometry">
            <mxPoint x="413.5" y="380" as="sourcePoint" />
            <mxPoint x="350" y="380" as="targetPoint" />
          </mxGeometry>
        </mxCell>
        <mxCell id="tTboqh6hp8117DdVjzpD-9" value="Poner en la variable opcion el valor introducido" style="shape=parallelogram;perimeter=parallelogramPerimeter;whiteSpace=wrap;html=1;fixedSize=1;" vertex="1" parent="WIyWlLk6GJQsqaUBKTNV-1">
          <mxGeometry x="289" y="400" width="250" height="60" as="geometry" />
        </mxCell>
        <mxCell id="tTboqh6hp8117DdVjzpD-10" value="" style="rounded=0;html=1;jettySize=auto;orthogonalLoop=1;fontSize=11;endArrow=block;endFill=0;endSize=8;strokeWidth=1;shadow=0;labelBackgroundColor=none;edgeStyle=orthogonalEdgeStyle;exitX=0.5;exitY=1;exitDx=0;exitDy=0;entryX=0.5;entryY=0;entryDx=0;entryDy=0;" edge="1" parent="WIyWlLk6GJQsqaUBKTNV-1" source="tTboqh6hp8117DdVjzpD-9" target="tTboqh6hp8117DdVjzpD-11">
          <mxGeometry relative="1" as="geometry">
            <mxPoint x="413.5" y="490" as="sourcePoint" />
            <mxPoint x="413.5" y="540" as="targetPoint" />
          </mxGeometry>
        </mxCell>
        <mxCell id="tTboqh6hp8117DdVjzpD-11" value="opcion" style="rhombus;whiteSpace=wrap;html=1;" vertex="1" parent="WIyWlLk6GJQsqaUBKTNV-1">
          <mxGeometry x="374" y="490" width="80" height="80" as="geometry" />
        </mxCell>
        <mxCell id="tTboqh6hp8117DdVjzpD-12" value="&lt;b&gt;case 1:&lt;/b&gt;" style="text;html=1;strokeColor=none;fillColor=none;align=center;verticalAlign=middle;whiteSpace=wrap;rounded=0;" vertex="1" parent="WIyWlLk6GJQsqaUBKTNV-1">
          <mxGeometry x="-250" y="580" width="50" height="30" as="geometry" />
        </mxCell>
        <mxCell id="tTboqh6hp8117DdVjzpD-13" value="" style="rounded=0;html=1;jettySize=auto;orthogonalLoop=1;fontSize=11;endArrow=block;endFill=0;endSize=8;strokeWidth=1;shadow=0;labelBackgroundColor=none;edgeStyle=orthogonalEdgeStyle;exitX=0.5;exitY=1;exitDx=0;exitDy=0;entryX=0.5;entryY=0;entryDx=0;entryDy=0;" edge="1" parent="WIyWlLk6GJQsqaUBKTNV-1" source="tTboqh6hp8117DdVjzpD-11" target="tTboqh6hp8117DdVjzpD-24">
          <mxGeometry relative="1" as="geometry">
            <mxPoint x="350" y="580" as="sourcePoint" />
            <mxPoint x="-200" y="650" as="targetPoint" />
            <Array as="points">
              <mxPoint x="414" y="610" />
              <mxPoint x="-255" y="610" />
            </Array>
          </mxGeometry>
        </mxCell>
        <mxCell id="tTboqh6hp8117DdVjzpD-14" value="" style="rounded=0;html=1;jettySize=auto;orthogonalLoop=1;fontSize=11;endArrow=block;endFill=0;endSize=8;strokeWidth=1;shadow=0;labelBackgroundColor=none;edgeStyle=orthogonalEdgeStyle;" edge="1" parent="WIyWlLk6GJQsqaUBKTNV-1" target="tTboqh6hp8117DdVjzpD-26">
          <mxGeometry relative="1" as="geometry">
            <mxPoint x="50" y="610" as="sourcePoint" />
            <mxPoint x="140" y="620" as="targetPoint" />
            <Array as="points">
              <mxPoint x="50" y="650" />
              <mxPoint x="50" y="650" />
            </Array>
          </mxGeometry>
        </mxCell>
        <mxCell id="tTboqh6hp8117DdVjzpD-15" value="" style="rounded=0;html=1;jettySize=auto;orthogonalLoop=1;fontSize=11;endArrow=block;endFill=0;endSize=8;strokeWidth=1;shadow=0;labelBackgroundColor=none;edgeStyle=orthogonalEdgeStyle;" edge="1" parent="WIyWlLk6GJQsqaUBKTNV-1">
          <mxGeometry relative="1" as="geometry">
            <mxPoint x="543" y="610" as="sourcePoint" />
            <mxPoint x="542.5" y="660" as="targetPoint" />
            <Array as="points">
              <mxPoint x="542.5" y="620" />
              <mxPoint x="542.5" y="620" />
            </Array>
          </mxGeometry>
        </mxCell>
        <mxCell id="tTboqh6hp8117DdVjzpD-18" value="&lt;b&gt;case 2:&lt;/b&gt;" style="text;html=1;strokeColor=none;fillColor=none;align=center;verticalAlign=middle;whiteSpace=wrap;rounded=0;" vertex="1" parent="WIyWlLk6GJQsqaUBKTNV-1">
          <mxGeometry x="-130" y="580" width="50" height="30" as="geometry" />
        </mxCell>
        <mxCell id="tTboqh6hp8117DdVjzpD-19" value="&lt;b&gt;case 3:&lt;/b&gt;" style="text;html=1;strokeColor=none;fillColor=none;align=center;verticalAlign=middle;whiteSpace=wrap;rounded=0;" vertex="1" parent="WIyWlLk6GJQsqaUBKTNV-1">
          <mxGeometry x="40" y="580" width="60" height="30" as="geometry" />
        </mxCell>
        <mxCell id="tTboqh6hp8117DdVjzpD-20" value="&lt;b&gt;case 4:&lt;/b&gt;" style="text;html=1;strokeColor=none;fillColor=none;align=center;verticalAlign=middle;whiteSpace=wrap;rounded=0;" vertex="1" parent="WIyWlLk6GJQsqaUBKTNV-1">
          <mxGeometry x="170" y="580" width="51" height="30" as="geometry" />
        </mxCell>
        <mxCell id="tTboqh6hp8117DdVjzpD-21" value="&lt;b&gt;case 5:&lt;/b&gt;" style="text;html=1;strokeColor=none;fillColor=none;align=center;verticalAlign=middle;whiteSpace=wrap;rounded=0;" vertex="1" parent="WIyWlLk6GJQsqaUBKTNV-1">
          <mxGeometry x="309" y="610" width="60" height="30" as="geometry" />
        </mxCell>
        <mxCell id="tTboqh6hp8117DdVjzpD-22" value="&lt;b&gt;case 6:&lt;/b&gt;" style="text;html=1;strokeColor=none;fillColor=none;align=center;verticalAlign=middle;whiteSpace=wrap;rounded=0;" vertex="1" parent="WIyWlLk6GJQsqaUBKTNV-1">
          <mxGeometry x="500" y="585" width="53" height="30" as="geometry" />
        </mxCell>
        <mxCell id="tTboqh6hp8117DdVjzpD-24" value="Mostrar &lt;br&gt;notamedia(teclado)" style="shape=parallelogram;perimeter=parallelogramPerimeter;whiteSpace=wrap;html=1;fixedSize=1;" vertex="1" parent="WIyWlLk6GJQsqaUBKTNV-1">
          <mxGeometry x="-310" y="660" width="110" height="60" as="geometry" />
        </mxCell>
        <mxCell id="tTboqh6hp8117DdVjzpD-25" value="Mostrar&lt;br&gt;calcularMediav2(teclado)" style="shape=parallelogram;perimeter=parallelogramPerimeter;whiteSpace=wrap;html=1;fixedSize=1;" vertex="1" parent="WIyWlLk6GJQsqaUBKTNV-1">
          <mxGeometry x="-210" y="660" width="170" height="60" as="geometry" />
        </mxCell>
        <mxCell id="tTboqh6hp8117DdVjzpD-26" value="Mostrar notaMediav3(teclado)" style="shape=parallelogram;perimeter=parallelogramPerimeter;whiteSpace=wrap;html=1;fixedSize=1;direction=east;" vertex="1" parent="WIyWlLk6GJQsqaUBKTNV-1">
          <mxGeometry x="-46" y="660" width="180" height="60" as="geometry" />
        </mxCell>
        <mxCell id="tTboqh6hp8117DdVjzpD-27" value="Mostrar mostrarPeliculas(teclado)" style="shape=parallelogram;perimeter=parallelogramPerimeter;whiteSpace=wrap;html=1;fixedSize=1;" vertex="1" parent="WIyWlLk6GJQsqaUBKTNV-1">
          <mxGeometry x="570" y="660" width="157" height="60" as="geometry" />
        </mxCell>
        <mxCell id="tTboqh6hp8117DdVjzpD-28" value="Escribir: &quot;¡Muchas gracias!" style="shape=parallelogram;perimeter=parallelogramPerimeter;whiteSpace=wrap;html=1;fixedSize=1;" vertex="1" parent="WIyWlLk6GJQsqaUBKTNV-1">
          <mxGeometry x="1356.5" y="660" width="120" height="60" as="geometry" />
        </mxCell>
        <mxCell id="tTboqh6hp8117DdVjzpD-30" value="Mostrar escribirMultiplo(teclado)" style="shape=parallelogram;perimeter=parallelogramPerimeter;whiteSpace=wrap;html=1;fixedSize=1;" vertex="1" parent="WIyWlLk6GJQsqaUBKTNV-1">
          <mxGeometry x="870" y="660" width="170" height="60" as="geometry" />
        </mxCell>
        <mxCell id="tTboqh6hp8117DdVjzpD-31" value="" style="endArrow=none;html=1;rounded=0;exitX=0;exitY=0.5;exitDx=0;exitDy=0;" edge="1" parent="WIyWlLk6GJQsqaUBKTNV-1" source="tTboqh6hp8117DdVjzpD-5">
          <mxGeometry width="50" height="50" relative="1" as="geometry">
            <mxPoint x="180" y="230" as="sourcePoint" />
            <mxPoint x="-260" y="720" as="targetPoint" />
            <Array as="points">
              <mxPoint x="-400" y="200" />
              <mxPoint x="-400" y="240" />
              <mxPoint x="-400" y="850" />
              <mxPoint x="-229" y="850" />
              <mxPoint x="-260" y="850" />
              <mxPoint x="-260" y="810" />
              <mxPoint x="-260" y="730" />
            </Array>
          </mxGeometry>
        </mxCell>
        <mxCell id="tTboqh6hp8117DdVjzpD-32" value="" style="endArrow=none;html=1;rounded=0;entryX=0.374;entryY=1.017;entryDx=0;entryDy=0;entryPerimeter=0;" edge="1" parent="WIyWlLk6GJQsqaUBKTNV-1" target="tTboqh6hp8117DdVjzpD-25">
          <mxGeometry width="50" height="50" relative="1" as="geometry">
            <mxPoint x="-240" y="850" as="sourcePoint" />
            <mxPoint x="40" y="640" as="targetPoint" />
            <Array as="points">
              <mxPoint x="-146" y="850" />
            </Array>
          </mxGeometry>
        </mxCell>
        <mxCell id="tTboqh6hp8117DdVjzpD-33" value="" style="endArrow=none;html=1;rounded=0;entryX=0.466;entryY=0.984;entryDx=0;entryDy=0;entryPerimeter=0;" edge="1" parent="WIyWlLk6GJQsqaUBKTNV-1" target="tTboqh6hp8117DdVjzpD-26">
          <mxGeometry width="50" height="50" relative="1" as="geometry">
            <mxPoint x="-150" y="850" as="sourcePoint" />
            <mxPoint x="130" y="770" as="targetPoint" />
            <Array as="points">
              <mxPoint x="30" y="850" />
              <mxPoint x="40" y="850" />
              <mxPoint x="38" y="740" />
            </Array>
          </mxGeometry>
        </mxCell>
        <mxCell id="tTboqh6hp8117DdVjzpD-36" value="Mostrar mostrarPeliculasv2(teclado)" style="shape=parallelogram;perimeter=parallelogramPerimeter;whiteSpace=wrap;html=1;fixedSize=1;" vertex="1" parent="WIyWlLk6GJQsqaUBKTNV-1">
          <mxGeometry x="713" y="660" width="167" height="60" as="geometry" />
        </mxCell>
        <mxCell id="tTboqh6hp8117DdVjzpD-38" value="" style="rounded=0;html=1;jettySize=auto;orthogonalLoop=1;fontSize=11;endArrow=block;endFill=0;endSize=8;strokeWidth=1;shadow=0;labelBackgroundColor=none;edgeStyle=orthogonalEdgeStyle;entryX=0.451;entryY=0.021;entryDx=0;entryDy=0;entryPerimeter=0;" edge="1" parent="WIyWlLk6GJQsqaUBKTNV-1" target="tTboqh6hp8117DdVjzpD-25">
          <mxGeometry relative="1" as="geometry">
            <mxPoint x="-130" y="610" as="sourcePoint" />
            <mxPoint x="-50" y="650" as="targetPoint" />
            <Array as="points">
              <mxPoint x="-133" y="610" />
              <mxPoint x="-133" y="640" />
            </Array>
          </mxGeometry>
        </mxCell>
        <mxCell id="tTboqh6hp8117DdVjzpD-39" value="" style="rounded=0;html=1;jettySize=auto;orthogonalLoop=1;fontSize=11;endArrow=block;endFill=0;endSize=8;strokeWidth=1;shadow=0;labelBackgroundColor=none;edgeStyle=orthogonalEdgeStyle;" edge="1" parent="WIyWlLk6GJQsqaUBKTNV-1" target="tTboqh6hp8117DdVjzpD-27">
          <mxGeometry relative="1" as="geometry">
            <mxPoint x="725" y="610" as="sourcePoint" />
            <mxPoint x="730" y="650" as="targetPoint" />
            <Array as="points">
              <mxPoint x="660" y="610" />
            </Array>
          </mxGeometry>
        </mxCell>
        <mxCell id="tTboqh6hp8117DdVjzpD-40" value="" style="rounded=0;html=1;jettySize=auto;orthogonalLoop=1;fontSize=11;endArrow=block;endFill=0;endSize=8;strokeWidth=1;shadow=0;labelBackgroundColor=none;edgeStyle=orthogonalEdgeStyle;" edge="1" parent="WIyWlLk6GJQsqaUBKTNV-1" source="tTboqh6hp8117DdVjzpD-1">
          <mxGeometry relative="1" as="geometry">
            <mxPoint x="423.5" y="170" as="sourcePoint" />
            <mxPoint x="414" y="20" as="targetPoint" />
          </mxGeometry>
        </mxCell>
        <mxCell id="tTboqh6hp8117DdVjzpD-42" value="&lt;b&gt;case 7:&lt;/b&gt;" style="text;html=1;strokeColor=none;fillColor=none;align=center;verticalAlign=middle;whiteSpace=wrap;rounded=0;" vertex="1" parent="WIyWlLk6GJQsqaUBKTNV-1">
          <mxGeometry x="610" y="580" width="53" height="30" as="geometry" />
        </mxCell>
        <mxCell id="tTboqh6hp8117DdVjzpD-43" value="&lt;b&gt;case 8:&lt;/b&gt;" style="text;html=1;strokeColor=none;fillColor=none;align=center;verticalAlign=middle;whiteSpace=wrap;rounded=0;" vertex="1" parent="WIyWlLk6GJQsqaUBKTNV-1">
          <mxGeometry x="770" y="580" width="53" height="30" as="geometry" />
        </mxCell>
        <mxCell id="tTboqh6hp8117DdVjzpD-44" value="" style="rounded=0;html=1;jettySize=auto;orthogonalLoop=1;fontSize=11;endArrow=none;endFill=0;endSize=8;strokeWidth=1;shadow=0;labelBackgroundColor=none;edgeStyle=orthogonalEdgeStyle;" edge="1" parent="WIyWlLk6GJQsqaUBKTNV-1">
          <mxGeometry relative="1" as="geometry">
            <mxPoint x="414" y="610" as="sourcePoint" />
            <mxPoint x="717" y="610" as="targetPoint" />
            <Array as="points" />
          </mxGeometry>
        </mxCell>
        <mxCell id="tTboqh6hp8117DdVjzpD-45" value="&lt;b&gt;case 9:&lt;/b&gt;" style="text;html=1;strokeColor=none;fillColor=none;align=center;verticalAlign=middle;whiteSpace=wrap;rounded=0;" vertex="1" parent="WIyWlLk6GJQsqaUBKTNV-1">
          <mxGeometry x="928.5" y="580" width="53" height="30" as="geometry" />
        </mxCell>
        <mxCell id="tTboqh6hp8117DdVjzpD-46" value="&lt;b&gt;case 10:&lt;/b&gt;" style="text;html=1;strokeColor=none;fillColor=none;align=center;verticalAlign=middle;whiteSpace=wrap;rounded=0;" vertex="1" parent="WIyWlLk6GJQsqaUBKTNV-1">
          <mxGeometry x="1088.5" y="580" width="53" height="30" as="geometry" />
        </mxCell>
        <mxCell id="tTboqh6hp8117DdVjzpD-47" value="&lt;b&gt;case 11:&lt;/b&gt;" style="text;html=1;strokeColor=none;fillColor=none;align=center;verticalAlign=middle;whiteSpace=wrap;rounded=0;" vertex="1" parent="WIyWlLk6GJQsqaUBKTNV-1">
          <mxGeometry x="1257" y="580" width="53" height="30" as="geometry" />
        </mxCell>
        <mxCell id="tTboqh6hp8117DdVjzpD-48" value="&lt;b&gt;case 12:&lt;/b&gt;" style="text;html=1;strokeColor=none;fillColor=none;align=center;verticalAlign=middle;whiteSpace=wrap;rounded=0;" vertex="1" parent="WIyWlLk6GJQsqaUBKTNV-1">
          <mxGeometry x="1393.5" y="580" width="53" height="30" as="geometry" />
        </mxCell>
        <mxCell id="tTboqh6hp8117DdVjzpD-49" value="Mostrar adivinarNumero(teclado)" style="shape=parallelogram;perimeter=parallelogramPerimeter;whiteSpace=wrap;html=1;fixedSize=1;direction=east;" vertex="1" parent="WIyWlLk6GJQsqaUBKTNV-1">
          <mxGeometry x="120" y="660" width="160" height="60" as="geometry" />
        </mxCell>
        <mxCell id="tTboqh6hp8117DdVjzpD-50" value="Mostrar ahoraYo(teclado)" style="shape=parallelogram;perimeter=parallelogramPerimeter;whiteSpace=wrap;html=1;fixedSize=1;direction=east;" vertex="1" parent="WIyWlLk6GJQsqaUBKTNV-1">
          <mxGeometry x="270" y="660" width="170" height="60" as="geometry" />
        </mxCell>
        <mxCell id="tTboqh6hp8117DdVjzpD-51" value="Mostrar trampa(teclado)" style="shape=parallelogram;perimeter=parallelogramPerimeter;whiteSpace=wrap;html=1;fixedSize=1;direction=east;" vertex="1" parent="WIyWlLk6GJQsqaUBKTNV-1">
          <mxGeometry x="430" y="660" width="156" height="60" as="geometry" />
        </mxCell>
        <mxCell id="tTboqh6hp8117DdVjzpD-52" value="Mostrar mostrarASCII(teclado)" style="shape=parallelogram;perimeter=parallelogramPerimeter;whiteSpace=wrap;html=1;fixedSize=1;direction=east;" vertex="1" parent="WIyWlLk6GJQsqaUBKTNV-1">
          <mxGeometry x="1030" y="660" width="170" height="60" as="geometry" />
        </mxCell>
        <mxCell id="tTboqh6hp8117DdVjzpD-55" value="Mostrar ascii2(teclado)" style="shape=parallelogram;perimeter=parallelogramPerimeter;whiteSpace=wrap;html=1;fixedSize=1;" vertex="1" parent="WIyWlLk6GJQsqaUBKTNV-1">
          <mxGeometry x="1200" y="660" width="167" height="60" as="geometry" />
        </mxCell>
        <mxCell id="tTboqh6hp8117DdVjzpD-60" value="" style="rounded=0;html=1;jettySize=auto;orthogonalLoop=1;fontSize=11;endArrow=block;endFill=0;endSize=8;strokeWidth=1;shadow=0;labelBackgroundColor=none;edgeStyle=orthogonalEdgeStyle;entryX=0.5;entryY=0;entryDx=0;entryDy=0;" edge="1" parent="WIyWlLk6GJQsqaUBKTNV-1" target="tTboqh6hp8117DdVjzpD-36">
          <mxGeometry relative="1" as="geometry">
            <mxPoint x="725.5" y="610" as="sourcePoint" />
            <mxPoint x="454" y="1100" as="targetPoint" />
            <Array as="points">
              <mxPoint x="797" y="610" />
            </Array>
          </mxGeometry>
        </mxCell>
        <mxCell id="tTboqh6hp8117DdVjzpD-61" value="" style="rounded=0;html=1;jettySize=auto;orthogonalLoop=1;fontSize=11;endArrow=block;endFill=0;endSize=8;strokeWidth=1;shadow=0;labelBackgroundColor=none;edgeStyle=orthogonalEdgeStyle;entryX=0.5;entryY=0;entryDx=0;entryDy=0;" edge="1" parent="WIyWlLk6GJQsqaUBKTNV-1" target="tTboqh6hp8117DdVjzpD-30">
          <mxGeometry relative="1" as="geometry">
            <mxPoint x="797" y="610" as="sourcePoint" />
            <mxPoint x="850.0611764705882" y="449.99999999999955" as="targetPoint" />
            <Array as="points">
              <mxPoint x="955" y="610" />
            </Array>
          </mxGeometry>
        </mxCell>
        <mxCell id="tTboqh6hp8117DdVjzpD-62" value="" style="rounded=0;html=1;jettySize=auto;orthogonalLoop=1;fontSize=11;endArrow=block;endFill=0;endSize=8;strokeWidth=1;shadow=0;labelBackgroundColor=none;edgeStyle=orthogonalEdgeStyle;exitX=0.75;exitY=1;exitDx=0;exitDy=0;entryX=0.5;entryY=0;entryDx=0;entryDy=0;" edge="1" parent="WIyWlLk6GJQsqaUBKTNV-1" source="tTboqh6hp8117DdVjzpD-20" target="tTboqh6hp8117DdVjzpD-49">
          <mxGeometry relative="1" as="geometry">
            <mxPoint x="79.99999999999955" y="639.9999999999995" as="sourcePoint" />
            <mxPoint x="79.94117647058829" y="689.9999999999995" as="targetPoint" />
            <Array as="points">
              <mxPoint x="200" y="610" />
            </Array>
          </mxGeometry>
        </mxCell>
        <mxCell id="tTboqh6hp8117DdVjzpD-63" value="" style="rounded=0;html=1;jettySize=auto;orthogonalLoop=1;fontSize=11;endArrow=block;endFill=0;endSize=8;strokeWidth=1;shadow=0;labelBackgroundColor=none;edgeStyle=orthogonalEdgeStyle;exitX=0.5;exitY=0;exitDx=0;exitDy=0;" edge="1" parent="WIyWlLk6GJQsqaUBKTNV-1" source="tTboqh6hp8117DdVjzpD-21">
          <mxGeometry relative="1" as="geometry">
            <mxPoint x="1380.06" y="330" as="sourcePoint" />
            <mxPoint x="370" y="660" as="targetPoint" />
            <Array as="points">
              <mxPoint x="370" y="610" />
              <mxPoint x="370" y="660" />
            </Array>
          </mxGeometry>
        </mxCell>
        <mxCell id="tTboqh6hp8117DdVjzpD-64" value="" style="rounded=0;html=1;jettySize=auto;orthogonalLoop=1;fontSize=11;endArrow=block;endFill=0;endSize=8;strokeWidth=1;shadow=0;labelBackgroundColor=none;edgeStyle=orthogonalEdgeStyle;exitX=0.5;exitY=1;exitDx=0;exitDy=0;entryX=0.5;entryY=0;entryDx=0;entryDy=0;" edge="1" parent="WIyWlLk6GJQsqaUBKTNV-1" source="tTboqh6hp8117DdVjzpD-45" target="tTboqh6hp8117DdVjzpD-52">
          <mxGeometry relative="1" as="geometry">
            <mxPoint x="1100" y="495" as="sourcePoint" />
            <mxPoint x="790.0011764705882" y="374.99999999999955" as="targetPoint" />
            <Array as="points">
              <mxPoint x="1115" y="610" />
            </Array>
          </mxGeometry>
        </mxCell>
        <mxCell id="tTboqh6hp8117DdVjzpD-65" value="" style="rounded=0;html=1;jettySize=auto;orthogonalLoop=1;fontSize=11;endArrow=block;endFill=0;endSize=8;strokeWidth=1;shadow=0;labelBackgroundColor=none;edgeStyle=orthogonalEdgeStyle;exitX=0.5;exitY=1;exitDx=0;exitDy=0;entryX=0.557;entryY=0.013;entryDx=0;entryDy=0;entryPerimeter=0;" edge="1" parent="WIyWlLk6GJQsqaUBKTNV-1" source="tTboqh6hp8117DdVjzpD-46" target="tTboqh6hp8117DdVjzpD-55">
          <mxGeometry relative="1" as="geometry">
            <mxPoint x="1467.06" y="220" as="sourcePoint" />
            <mxPoint x="827.0011764705882" y="529.9999999999995" as="targetPoint" />
            <Array as="points">
              <mxPoint x="1293" y="610" />
            </Array>
          </mxGeometry>
        </mxCell>
        <mxCell id="tTboqh6hp8117DdVjzpD-66" value="" style="rounded=0;html=1;jettySize=auto;orthogonalLoop=1;fontSize=11;endArrow=block;endFill=0;endSize=8;strokeWidth=1;shadow=0;labelBackgroundColor=none;edgeStyle=orthogonalEdgeStyle;entryX=0.5;entryY=0;entryDx=0;entryDy=0;" edge="1" parent="WIyWlLk6GJQsqaUBKTNV-1" target="tTboqh6hp8117DdVjzpD-28">
          <mxGeometry relative="1" as="geometry">
            <mxPoint x="1290" y="610" as="sourcePoint" />
            <mxPoint x="810.0011764705882" y="550.0599999999995" as="targetPoint" />
            <Array as="points">
              <mxPoint x="1417" y="610" />
            </Array>
          </mxGeometry>
        </mxCell>
        <mxCell id="tTboqh6hp8117DdVjzpD-68" value="" style="rounded=0;html=1;jettySize=auto;orthogonalLoop=1;fontSize=11;endArrow=block;endFill=0;endSize=8;strokeWidth=1;shadow=0;labelBackgroundColor=none;edgeStyle=orthogonalEdgeStyle;exitX=0.5;exitY=1;exitDx=0;exitDy=0;" edge="1" parent="WIyWlLk6GJQsqaUBKTNV-1" source="tTboqh6hp8117DdVjzpD-28" target="tTboqh6hp8117DdVjzpD-2">
          <mxGeometry relative="1" as="geometry">
            <mxPoint x="1170" y="919.9999999999995" as="sourcePoint" />
            <mxPoint x="1348.0190000000002" y="970.7799999999997" as="targetPoint" />
            <Array as="points">
              <mxPoint x="1416" y="770" />
              <mxPoint x="1420" y="770" />
            </Array>
          </mxGeometry>
        </mxCell>
        <mxCell id="tTboqh6hp8117DdVjzpD-69" value="" style="endArrow=none;html=1;rounded=0;entryX=0.5;entryY=1;entryDx=0;entryDy=0;" edge="1" parent="WIyWlLk6GJQsqaUBKTNV-1" target="tTboqh6hp8117DdVjzpD-49">
          <mxGeometry width="50" height="50" relative="1" as="geometry">
            <mxPoint x="40" y="850" as="sourcePoint" />
            <mxPoint x="227.87999999999965" y="720" as="targetPoint" />
            <Array as="points">
              <mxPoint x="120" y="850" />
              <mxPoint x="200" y="850" />
              <mxPoint x="200" y="800" />
              <mxPoint x="200" y="770" />
            </Array>
          </mxGeometry>
        </mxCell>
        <mxCell id="tTboqh6hp8117DdVjzpD-70" value="" style="endArrow=none;html=1;rounded=0;entryX=0.374;entryY=1.017;entryDx=0;entryDy=0;entryPerimeter=0;" edge="1" parent="WIyWlLk6GJQsqaUBKTNV-1">
          <mxGeometry width="50" height="50" relative="1" as="geometry">
            <mxPoint x="200" y="849" as="sourcePoint" />
            <mxPoint x="353.5799999999999" y="720" as="targetPoint" />
            <Array as="points">
              <mxPoint x="354" y="848.98" />
            </Array>
          </mxGeometry>
        </mxCell>
        <mxCell id="tTboqh6hp8117DdVjzpD-71" value="" style="endArrow=none;html=1;rounded=0;entryX=0.374;entryY=1.017;entryDx=0;entryDy=0;entryPerimeter=0;" edge="1" parent="WIyWlLk6GJQsqaUBKTNV-1">
          <mxGeometry width="50" height="50" relative="1" as="geometry">
            <mxPoint x="350" y="849" as="sourcePoint" />
            <mxPoint x="499.5799999999999" y="720" as="targetPoint" />
            <Array as="points">
              <mxPoint x="500" y="848.98" />
            </Array>
          </mxGeometry>
        </mxCell>
        <mxCell id="tTboqh6hp8117DdVjzpD-72" value="" style="endArrow=none;html=1;rounded=0;entryX=0.374;entryY=1.017;entryDx=0;entryDy=0;entryPerimeter=0;" edge="1" parent="WIyWlLk6GJQsqaUBKTNV-1">
          <mxGeometry width="50" height="50" relative="1" as="geometry">
            <mxPoint x="500" y="849" as="sourcePoint" />
            <mxPoint x="649.5799999999999" y="720" as="targetPoint" />
            <Array as="points">
              <mxPoint x="650" y="848.98" />
            </Array>
          </mxGeometry>
        </mxCell>
        <mxCell id="tTboqh6hp8117DdVjzpD-73" value="" style="endArrow=none;html=1;rounded=0;entryX=0.374;entryY=1.017;entryDx=0;entryDy=0;entryPerimeter=0;" edge="1" parent="WIyWlLk6GJQsqaUBKTNV-1">
          <mxGeometry width="50" height="50" relative="1" as="geometry">
            <mxPoint x="650" y="849" as="sourcePoint" />
            <mxPoint x="799.5799999999999" y="720" as="targetPoint" />
            <Array as="points">
              <mxPoint x="800" y="848.98" />
            </Array>
          </mxGeometry>
        </mxCell>
        <mxCell id="tTboqh6hp8117DdVjzpD-74" value="" style="endArrow=none;html=1;rounded=0;entryX=0.374;entryY=1.017;entryDx=0;entryDy=0;entryPerimeter=0;" edge="1" parent="WIyWlLk6GJQsqaUBKTNV-1">
          <mxGeometry width="50" height="50" relative="1" as="geometry">
            <mxPoint x="800" y="849" as="sourcePoint" />
            <mxPoint x="949.5799999999999" y="720" as="targetPoint" />
            <Array as="points">
              <mxPoint x="950" y="848.98" />
            </Array>
          </mxGeometry>
        </mxCell>
        <mxCell id="tTboqh6hp8117DdVjzpD-75" value="" style="endArrow=none;html=1;rounded=0;entryX=0.374;entryY=1.017;entryDx=0;entryDy=0;entryPerimeter=0;" edge="1" parent="WIyWlLk6GJQsqaUBKTNV-1">
          <mxGeometry width="50" height="50" relative="1" as="geometry">
            <mxPoint x="950" y="849" as="sourcePoint" />
            <mxPoint x="1109.58" y="720" as="targetPoint" />
            <Array as="points">
              <mxPoint x="1110" y="848.98" />
            </Array>
          </mxGeometry>
        </mxCell>
        <mxCell id="tTboqh6hp8117DdVjzpD-76" value="" style="endArrow=none;html=1;rounded=0;entryX=0.374;entryY=1.017;entryDx=0;entryDy=0;entryPerimeter=0;" edge="1" parent="WIyWlLk6GJQsqaUBKTNV-1">
          <mxGeometry width="50" height="50" relative="1" as="geometry">
            <mxPoint x="1110" y="850" as="sourcePoint" />
            <mxPoint x="1291.08" y="720" as="targetPoint" />
            <Array as="points">
              <mxPoint x="1291.5" y="848.98" />
            </Array>
          </mxGeometry>
        </mxCell>
      </root>
    </mxGraphModel>
  </diagram>
</mxfile>
